<?xml version="1.0" encoding="UTF-8"?>
<svg id="Capa_1" data-name="Capa 1" xmlns="http://www.w3.org/2000/svg" viewBox="0 0 67 68">
  <defs>
    <style>
      .cls-1 {
        fill: #fff;
        stroke-width: 0px;
      }
    </style>
  </defs>
  <path class="cls-1" d="m46.46,38.83c.56-.28,1.08-.58,1.57-.92.48-.33,1-.64,1.57-.92.56-.28,1.25-.42,2.06-.42,1.32,0,2.33.4,3.02,1.18.69.79,1.03,1.75,1.03,2.87,0,.56-.15,1.2-.46,1.91-.31.71-.75,1.38-1.34,1.99-.59.61-1.31,1.12-2.18,1.53-.87.41-1.83.61-2.9.61-1.58,0-2.94-.34-4.09-1.03-1.15-.69-2.22-1.57-3.21-2.64-.99-1.07-1.97-2.22-2.94-3.44-.97-1.22-2.05-2.38-3.25-3.48-1.2-1.09-2.56-2.01-4.09-2.75-1.53-.74-3.36-1.16-5.5-1.26-.76,0-1.57.06-2.41.19-.84.13-1.62.37-2.33.73-.71.36-1.3.84-1.76,1.45s-.69,1.38-.69,2.29c0,1.07.31,1.96.92,2.67.61.71,1.26,1.4,1.95,2.06.69.66,1.3,1.33,1.83,1.99.54.66.73,1.48.57,2.45-.15.97-.52,1.69-1.11,2.18-.59.48-1.29.85-2.1,1.11-.82.26-1.68.43-2.6.53-.92.1-1.76.24-2.52.42-.76.18-1.4.45-1.91.8-.51.36-.76.92-.76,1.68,0,.66.22,1.22.65,1.68.43.46,1.06.69,1.87.69.71,0,1.36-.1,1.95-.31.58-.2,1.16-.45,1.72-.73.56-.28,1.13-.52,1.72-.73.58-.2,1.23-.31,1.95-.31,1.02,0,1.86.29,2.52.88.66.59.99,1.34.99,2.25,0,.61-.17,1.16-.5,1.64-.33.48-.71.96-1.15,1.41-.43.46-.82.9-1.15,1.34-.33.43-.5.93-.5,1.49,0,.92.52,1.69,1.57,2.33,1.04.64,2.43.96,4.16.96s3.16-.38,4.28-1.15c1.12-.76,2.07-1.71,2.87-2.83.79-1.12,1.46-2.36,2.02-3.71.56-1.35,1.16-2.58,1.8-3.71.64-1.12,1.38-2.06,2.22-2.83.84-.76,1.9-1.15,3.17-1.15h.38c1.32.1,2.39.6,3.21,1.49.81.89,1.22,1.98,1.22,3.25,0,1.68-.7,3.24-2.1,4.66-1.4,1.43-3.24,2.66-5.5,3.71-2.27,1.04-4.8,1.85-7.6,2.41-2.8.56-5.6.84-8.4.84-2.45,0-4.87-.34-7.26-1.03-2.4-.69-4.56-1.62-6.5-2.79-1.94-1.17-3.5-2.55-4.7-4.13-1.2-1.58-1.8-3.23-1.8-4.97,0-1.94.71-3.39,2.14-4.36,1.43-.97,3.13-1.45,5.12-1.45,1.22,0,2.42.1,3.59.31,1.17.2,2.22.31,3.13.31.81,0,1.49-.15,2.02-.46s.85-.89.96-1.76c.1-.76-.1-1.39-.61-1.87-.51-.48-1.18-.93-2.02-1.34-.84-.41-1.76-.79-2.75-1.15-.99-.36-1.94-.78-2.83-1.26-.89-.48-1.63-1.06-2.22-1.72-.59-.66-.88-1.48-.88-2.45,0-1.88,1.15-3.2,3.44-3.94,2.29-.74,5.27-1.11,8.94-1.11,2.9,0,5.4.42,7.49,1.26,2.09.84,3.91,1.78,5.46,2.83,1.55,1.04,2.93,1.99,4.13,2.83,1.2.84,2.33,1.26,3.4,1.26.76,0,1.43-.14,1.99-.42Zm-.42-13.52c1.25.89,1.87,2.25,1.87,4.09s-.54,3.18-1.6,4.2c-1.07,1.02-2.24,1.53-3.52,1.53-1.48,0-2.6-.38-3.36-1.15s-1.2-1.83-1.3-3.21c-.05-.51-.04-1.03.04-1.57.08-.54.11-1.01.11-1.41s-.09-.75-.27-1.03c-.18-.28-.57-.42-1.18-.42-.46,0-1.17.17-2.14.5-.97.33-2.05.7-3.25,1.11-1.2.41-2.43.78-3.71,1.11-1.27.33-2.47.5-3.59.5-2.9,0-5.22-.85-6.95-2.56-1.73-1.71-2.6-3.86-2.6-6.46,0-1.78.32-3.44.96-4.97.64-1.53,1.52-2.87,2.64-4.01,1.12-1.15,2.46-2.05,4.01-2.71,1.55-.66,3.27-.99,5.16-.99,1.32,0,2.41.2,3.25.61.84.41,1.6.87,2.29,1.38.69.51,1.32.97,1.91,1.38.58.41,1.26.61,2.02.61s1.34-.48,1.72-1.45c.38-.97.81-2.05,1.3-3.25.48-1.2,1.12-2.28,1.91-3.25.79-.97,1.92-1.45,3.4-1.45,1.63,0,2.75.4,3.36,1.18.61.79,1.06,1.66,1.34,2.6.28.94.57,1.81.88,2.6.31.79.99,1.18,2.06,1.18.41,0,.79-.13,1.15-.38.36-.25.75-.55,1.18-.88.43-.33.92-.62,1.45-.88.53-.25,1.18-.38,1.95-.38,1.32,0,2.27.43,2.83,1.3.56.87.84,1.81.84,2.83,0,.82-.24,1.6-.73,2.37-.48.76-1.11,1.43-1.87,1.99-.76.56-1.62,1.01-2.56,1.34-.94.33-1.87.5-2.79.5-1.63,0-2.85-.37-3.67-1.11-.82-.74-1.38-1.64-1.68-2.71-.31-1.07-.47-2.25-.5-3.55-.03-1.3-.08-2.48-.15-3.55-.08-1.07-.31-1.97-.69-2.71-.38-.74-1.08-1.11-2.1-1.11s-1.68.34-2.14,1.03c-.46.69-.79,1.54-.99,2.56-.2,1.02-.33,2.14-.38,3.36-.05,1.22-.14,2.38-.27,3.48-.13,1.1-.38,2.05-.76,2.87-.38.82-1.01,1.33-1.87,1.53-.2.05-.51.08-.92.08-1.12,0-2-.48-2.64-1.45-.64-.97-1.29-2.05-1.95-3.25-.66-1.2-1.44-2.28-2.33-3.25-.89-.97-2.15-1.45-3.78-1.45-1.73,0-3.27.33-4.62.99-1.35.66-2.02,1.58-2.02,2.75,0,.76.2,1.33.61,1.68.41.36.92.59,1.53.69.61.1,1.27.15,1.99.15s1.38.04,1.99.11c.61.08,1.12.26,1.53.53.41.28.61.75.61,1.41,0,.97-.32,1.8-.96,2.48-.64.69-1.34,1.31-2.1,1.87-.76.56-1.46,1.12-2.1,1.68-.64.56-.96,1.2-.96,1.91,0,1.02.38,1.75,1.15,2.18.76.43,1.78.65,3.06.65s2.43-.18,3.63-.54c1.2-.36,2.39-.75,3.59-1.18,1.2-.43,2.39-.85,3.59-1.26,1.2-.41,2.43-.64,3.71-.69,1.68,0,3.14.45,4.39,1.34Z"/>
</svg>