<?xml version="1.0" encoding="UTF-8"?>
<svg id="Capa_1" data-name="Capa 1" xmlns="http://www.w3.org/2000/svg" viewBox="0 0 332 88">
  <defs>
    <style>
      .cls-1 {
        fill: #fff;
        stroke-width: 0px;
      }
    </style>
  </defs>
  <path class="cls-1" d="m87.02,68.9c-.22.54,0,.65.43.33,3.37-2.5,7.17-5.32,10.97-9.01l.33.22-13.69,18.46-11.19-1.74,16.94-45.83c1.09-2.93,1.85-3.58,1.09-3.58-1.52,0-7.39,4.13-33.45,32.26l-6.73,18.68-9.77-1.52,16.94-45.83c1.09-2.93,1.85-3.58,1.09-3.58-1.52,0-7.39,4.13-33.34,32.15l-6.84,18.79-9.78-1.52L26.53,31.97c.87-2.39-1.3-4.78-9.56-7.28v-.22l23.24-.54-3.48,8.04-8.47,23.35,31.82-32.58c5.43-.22,11.4.98,10.64,3.04l-10.64,29.65,31.93-32.69c5.43-.22,11.4.98,10.64,3.04l-15.64,43.12Z"/>
  <path class="cls-1" d="m109.72,36.21c-1.85,0-2.93-1.19-2.93-2.93,0-1.85,1.19-2.93,2.93-2.93,1.85,0,2.93,1.19,2.93,2.93s-1.19,2.93-2.93,2.93Zm0,5.87c-1.85,0-2.93-1.19-2.93-2.93,0-1.85,1.19-2.93,2.93-2.93,1.85,0,2.93,1.19,2.93,2.93s-1.19,2.93-2.93,2.93Zm0,0c1.85,0,2.93,1.19,2.93,2.93s-1.19,2.93-2.93,2.93c-1.85,0-2.93-1.19-2.93-2.93,0-1.85,1.19-2.93,2.93-2.93Zm0,5.86c1.85,0,2.93,1.19,2.93,2.93s-1.19,2.93-2.93,2.93c-1.85,0-2.93-1.19-2.93-2.93,0-1.85,1.19-2.93,2.93-2.93Zm2.93,8.8c0,1.74-1.09,2.82-2.82,2.82-1.85,0-3.04-1.09-3.04-2.82s1.09-2.93,2.82-2.93c1.85,0,3.04,1.09,3.04,2.82v.11Zm-2.93,2.82c1.85,0,2.93,1.19,2.93,2.93s-1.19,2.93-2.93,2.93c-1.85,0-2.93-1.19-2.93-2.93,0-1.85,1.19-2.93,2.93-2.93Zm5.86-29.22c-1.85,0-2.93-1.19-2.93-2.93,0-1.85,1.19-2.93,2.93-2.93,1.85,0,2.93,1.19,2.93,2.93s-1.19,2.93-2.93,2.93Zm0,0c1.85,0,2.93,1.19,2.93,2.93s-1.19,2.93-2.93,2.93c-1.85,0-2.93-1.19-2.93-2.93,0-1.85,1.19-2.93,2.93-2.93Zm0,11.73c-1.85,0-2.93-1.19-2.93-2.93,0-1.85,1.19-2.93,2.93-2.93,1.85,0,2.93,1.19,2.93,2.93s-1.19,2.93-2.93,2.93Zm0,0c1.63,0,2.61.87,2.93,2.28.22-1.41,1.3-2.28,2.82-2.28,1.85,0,2.93,1.19,2.93,2.93s-1.19,2.93-2.93,2.93c-1.63,0-2.61-.87-2.93-2.28-.22,1.41-1.3,2.28-2.82,2.28-1.85,0-2.93-1.19-2.93-2.93,0-1.85,1.19-2.93,2.93-2.93Zm-.11,5.86c1.74,0,2.72.87,3.04,2.28.22-1.41,1.3-2.28,2.82-2.28,1.85,0,2.93,1.19,2.93,2.93s-1.19,2.93-2.93,2.93c-1.63,0-2.61-.87-2.93-2.28-.22,1.63-1.63,2.28-3.15,2.28-2.06-.76-2.61-1.63-2.61-2.93,0-1.74,1.09-2.93,2.82-2.93Zm3.04,8.8c0,1.74-1.09,2.82-2.82,2.82-1.85,0-3.04-1.09-3.04-2.82s1.09-2.93,2.82-2.93c1.85,0,3.04,1.09,3.04,2.82v.11Zm-2.93,2.82c1.63,0,2.61.87,2.93,2.28.22-1.41,1.3-2.28,2.82-2.28,1.85,0,2.93,1.19,2.93,2.93s-1.19,2.93-2.93,2.93c-1.63,0-2.61-.87-2.93-2.28-.22,1.41-1.3,2.28-2.82,2.28-1.85,0-2.93-1.19-2.93-2.93,0-1.85,1.19-2.93,2.93-2.93Zm2.82,8.91c0,1.74-1.09,2.82-2.82,2.82s-2.93-1.09-2.93-2.82c0-1.85,1.09-3.04,2.82-3.04s2.93,1.09,2.93,2.82v.22Zm5.86-46.81c0,1.74-1.09,2.82-2.82,2.82-1.85,0-3.04-1.09-3.04-2.82s1.09-2.93,2.82-2.93c1.85,0,3.04,1.09,3.04,2.82v.11Zm-2.93,49.64c-1.85,0-2.93-1.19-2.93-2.93,0-1.85,1.19-2.93,2.93-2.93,1.85,0,2.93,1.19,2.93,2.93s-1.19,2.93-2.93,2.93Zm0,0c1.85,0,2.93,1.19,2.93,2.93,0,1.85-1.19,2.93-2.93,2.93-1.85,0-2.93-1.19-2.93-2.93s1.19-2.93,2.93-2.93Zm-.54-41.06c-1.41-.22-2.28-1.19-2.28-2.72,0-1.85,1.09-3.04,2.82-3.04s2.93,1.09,2.93,2.82v.22c0,1.52-.87,2.61-2.28,2.82,1.41.22,2.28,1.19,2.28,2.72v.22c0,1.74-1.09,2.82-2.82,2.82s-2.93-1.09-2.93-2.82c0-1.63.87-2.72,2.28-3.04Zm9.34-8.58c0,1.74-1.09,2.82-2.82,2.82-1.85,0-3.04-1.09-3.04-2.82s1.09-2.93,2.82-2.93c1.85,0,3.04,1.09,3.04,2.82v.11Zm0,5.76c0,1.74-1.09,2.82-2.82,2.82-1.85,0-3.04-1.09-3.04-2.82s1.09-2.93,2.82-2.93c1.85,0,3.04,1.09,3.04,2.82v.11Zm-2.93,14.66c1.85,0,2.93,1.19,2.93,2.93s-1.19,2.93-2.93,2.93c-1.85,0-2.93-1.19-2.93-2.93,0-1.85,1.19-2.93,2.93-2.93Zm0,5.86c1.85,0,2.93,1.19,2.93,2.93s-1.19,2.93-2.93,2.93c-1.85,0-2.93-1.19-2.93-2.93,0-1.85,1.19-2.93,2.93-2.93Zm0,17.49c1.85,0,2.93,1.19,2.93,2.93,0,1.85-1.19,2.93-2.93,2.93-1.85,0-2.93-1.19-2.93-2.93s1.19-2.93,2.93-2.93Zm0,5.86c1.85,0,2.93,1.19,2.93,2.93,0,1.85-1.19,2.93-2.93,2.93-1.85,0-2.93-1.19-2.93-2.93s1.19-2.93,2.93-2.93Zm8.8-49.64c0,1.74-1.09,2.82-2.82,2.82-1.85,0-3.04-1.09-3.04-2.82s1.09-2.93,2.82-2.93c1.85,0,3.04,1.09,3.04,2.82v.11Zm0,5.76c0,1.74-1.09,2.82-2.82,2.82-1.85,0-3.04-1.09-3.04-2.82s1.09-2.93,2.82-2.93c1.85,0,3.04,1.09,3.04,2.82v.11Zm-2.93,14.66c1.85,0,2.93,1.19,2.93,2.93s-1.19,2.93-2.93,2.93c-1.85,0-2.93-1.19-2.93-2.93,0-1.85,1.19-2.93,2.93-2.93Zm0,5.86c1.85,0,2.93,1.19,2.93,2.93s-1.19,2.93-2.93,2.93c-1.85,0-2.93-1.19-2.93-2.93,0-1.85,1.19-2.93,2.93-2.93Zm0,17.49c1.85,0,2.93,1.19,2.93,2.93,0,1.85-1.19,2.93-2.93,2.93-1.85,0-2.93-1.19-2.93-2.93s1.19-2.93,2.93-2.93Zm0,5.86c1.85,0,2.93,1.19,2.93,2.93,0,1.85-1.19,2.93-2.93,2.93-1.85,0-2.93-1.19-2.93-2.93s1.19-2.93,2.93-2.93Zm8.8-49.64c0,1.74-1.09,2.82-2.82,2.82-1.85,0-3.04-1.09-3.04-2.82s1.09-2.93,2.82-2.93c1.85,0,3.04,1.09,3.04,2.82v.11Zm-2.28,8.58c1.41.33,2.28,1.41,2.28,2.93,0,1.74-1.19,2.93-2.93,2.93-1.85,0-2.93-1.19-2.93-2.93,0-1.63.87-2.61,2.28-2.93-1.41-.22-2.28-1.3-2.28-2.82,0-1.85,1.19-2.93,2.93-2.93,1.85,0,2.93,1.19,2.93,2.93,0,1.52-.87,2.61-2.28,2.82Zm-.65,17.7c-1.85,0-2.93-1.19-2.93-2.93,0-1.85,1.19-2.93,2.93-2.93,1.85,0,2.93,1.19,2.93,2.93s-1.19,2.93-2.93,2.93Zm0,0c1.85,0,2.93,1.19,2.93,2.93s-1.19,2.93-2.93,2.93c-1.85,0-2.93-1.19-2.93-2.93,0-1.85,1.19-2.93,2.93-2.93Zm0,17.49c-1.85,0-2.93-1.19-2.93-2.93,0-1.85,1.19-2.93,2.93-2.93,1.85,0,2.93,1.19,2.93,2.93s-1.19,2.93-2.93,2.93Zm0,5.86c-1.85,0-2.93-1.19-2.93-2.93,0-1.85,1.19-2.93,2.93-2.93,1.85,0,2.93,1.19,2.93,2.93s-1.19,2.93-2.93,2.93Zm0,0c1.85,0,2.93,1.19,2.93,2.93,0,1.85-1.19,2.93-2.93,2.93-1.85,0-2.93-1.19-2.93-2.93s1.19-2.93,2.93-2.93Zm5.87-40.95c-1.85,0-2.93-1.19-2.93-2.93,0-1.85,1.19-2.93,2.93-2.93,1.85,0,2.93,1.19,2.93,2.93s-1.19,2.93-2.93,2.93Zm0,5.87c-1.85,0-2.93-1.19-2.93-2.93s1.19-2.93,2.93-2.93c1.85,0,2.93,1.19,2.93,2.93,0,1.85-1.19,2.93-2.93,2.93Zm0,5.87c-1.85,0-2.93-1.19-2.93-2.93s1.19-2.93,2.93-2.93c1.85,0,2.93,1.19,2.93,2.93,0,1.85-1.19,2.93-2.93,2.93Zm0,0c1.85,0,2.93,1.19,2.93,2.93,0,1.85-1.19,2.93-2.93,2.93-1.85,0-2.93-1.19-2.93-2.93s1.19-2.93,2.93-2.93Zm0,5.86c1.85,0,2.93,1.19,2.93,2.93s-1.19,2.93-2.93,2.93c-1.85,0-2.93-1.19-2.93-2.93,0-1.85,1.19-2.93,2.93-2.93Zm0,17.49c-1.85,0-2.93-1.19-2.93-2.93s1.19-2.93,2.93-2.93c1.85,0,2.93,1.19,2.93,2.93,0,1.85-1.19,2.93-2.93,2.93Zm0,5.86c-1.85,0-2.93-1.19-2.93-2.93,0-1.85,1.19-2.93,2.93-2.93,1.85,0,2.93,1.19,2.93,2.93s-1.19,2.93-2.93,2.93Zm5.87-40.95c1.85,0,2.93,1.19,2.93,2.93,0,1.85-1.19,2.93-2.93,2.93-1.85,0-2.93-1.19-2.93-2.93s1.19-2.93,2.93-2.93Zm0,5.87c1.85,0,2.93,1.19,2.93,2.93,0,1.85-1.19,2.93-2.93,2.93-1.85,0-2.93-1.19-2.93-2.93s1.19-2.93,2.93-2.93Zm0,5.87c1.85,0,2.93,1.19,2.93,2.93,0,1.85-1.19,2.93-2.93,2.93-1.85,0-2.93-1.19-2.93-2.93s1.19-2.93,2.93-2.93Zm0,5.86c1.85,0,2.93,1.19,2.93,2.93,0,1.85-1.19,2.93-2.93,2.93-1.85,0-2.93-1.19-2.93-2.93s1.19-2.93,2.93-2.93Zm0,11.62c1.85,0,2.93,1.19,2.93,2.93,0,1.85-1.19,2.93-2.93,2.93-1.85,0-2.93-1.19-2.93-2.93s1.19-2.93,2.93-2.93Z"/>
  <path class="cls-1" d="m213.01,72.16c0,1.64.37,2.73,1.11,3.27.74.54,1.86.81,3.34.81h1.54c1.74,0,2.77-.74,3.07-2.23.15-.77-.04-1.97-.58-3.61-.54-1.64-1.22-3.34-2.04-5.11-.82-1.77-1.64-3.43-2.46-4.99-.82-1.56-1.41-2.68-1.77-3.34,0-.15.05-.26.15-.31.1-.1.18-.1.23,0h.08l11.14,19.75c0,.05.03.11.08.19.05.08.08.17.08.27,0,.21-.15.31-.46.31h-17.52l-34.96-51.79v46.03c0,1.9.33,3.18,1,3.84.66.67,1.82,1,3.46,1h1.46c.15,0,.23.13.23.38v.23c0,.21-.08.31-.23.31h-14.37c-.31,0-.46-.1-.46-.31v-.23c0-.25.15-.38.46-.38h1.46c1.49,0,2.59-.36,3.3-1.08.72-.72,1.08-1.97,1.08-3.76V26.36c0-1.49-.27-2.52-.81-3.11-.54-.59-1.47-.88-2.8-.88h-2.31c-.72,0-1.37.15-1.96.46-.59.31-.96.9-1.11,1.77-.15.97.05,2.29.61,3.96.56,1.67,1.25,3.34,2.07,5.03.82,1.69,1.64,3.28,2.46,4.76.82,1.49,1.38,2.56,1.69,3.23.05.15,0,.31-.15.46-.21.1-.33.05-.38-.15l-11.07-19.75c0-.05-.03-.1-.08-.15-.05-.05-.08-.1-.08-.15,0-.31.15-.46.46-.46h20.36l32.12,46.72V26.36c0-1.54-.33-2.59-1-3.15-.67-.56-1.82-.85-3.46-.85h-1.38c-.31,0-.46-.15-.46-.46v-.23c0-.2.15-.31.46-.31h14.29c.2,0,.31.1.31.31v.23c0,.31-.1.46-.31.46h-1.46c-1.49,0-2.6.28-3.34.85-.74.56-1.11,1.61-1.11,3.15v45.8Z"/>
  <path class="cls-1" d="m236.53,36.21h-11.73v-5.87h11.73v5.87Zm5.87-8.8c0,1.74-1.19,2.93-2.93,2.93h-2.93V6.99h5.87v20.42Zm-2.93,43.88c-1.74,0-2.93-1.19-2.93-2.93v-32.15h5.87v35.08h-2.93Zm2.93-38.01c0-1.74,1.19-2.93,2.93-2.93h14.66v5.87h-17.6v-2.93Zm11.73,40.95c0,1.74-1.19,2.93-2.93,2.93h-5.86c-1.74,0-2.93-1.19-2.93-2.93v-2.93h11.73v2.93Zm5.87-5.86c0,1.74-1.19,2.93-2.93,2.93h-2.93v-5.86h5.87v2.93Z"/>
  <path class="cls-1" d="m316.47,60.21l.22.22-13.58,18.46-11.19-1.74,17.7-48.55c-2.39-1.63-5.54-2.82-8.91-2.82-14.23,0-25.2,21.4-25.2,35.62,0,9.99,5.43,11.3,8.8,11.3,2.28,0,4.56-.65,6.84-1.74l-.33.76c-5.65,4.56-10.43,6.19-14.66,6.19-6.08,0-12.27-3.26-12.27-13.79,0-18.9,19.33-40.3,43.01-40.3,3.69,0,10.64.54,14.12,1.41l-15.97,43.66c-.11.33.11.54.43.33,3.48-2.28,7.06-5.32,10.97-9.01Z"/>
</svg>