<?xml version="1.0" encoding="UTF-8"?>
<svg id="Capa_1" data-name="Capa 1" xmlns="http://www.w3.org/2000/svg" viewBox="0 0 332 88">
  <defs>
    <style>
      .cls-1 {
        fill: #fff;
        stroke-width: 0px;
      }
    </style>
  </defs>
  <path class="cls-1" d="m74.98,23.77c0-.49-.04-1-.12-1.55-.08-.54-.23-1.03-.45-1.47-.22-.43-.53-.8-.94-1.1-.41-.3-.91-.45-1.51-.45h-1.38c-.92,0-1.56.34-1.91,1.02-.35.68-.42,1.45-.2,2.32.43,1.79.98,4.03,1.63,6.72.65,2.69,1.36,5.59,2.12,8.71.76,3.12,1.55,6.35,2.36,9.69s1.61,6.57,2.4,9.69c.79,3.12,1.51,6.02,2.16,8.71s1.22,4.95,1.71,6.8c.7,2.6,2.41,3.91,5.13,3.91h3.26c.22,0,.33.06.33.16v.16c0,.11-.11.16-.33.16h-22.63c-.22,0-.33-.05-.33-.16v-.16c0-.11.11-.16.33-.16h3.5c1.14,0,2.04-.14,2.69-.41.65-.27,1.13-.62,1.42-1.06.3-.43.45-.92.45-1.47s-.06-1.06-.16-1.55c-.38-1.63-.85-3.59-1.42-5.9-.57-2.31-1.18-4.79-1.83-7.45-.65-2.66-1.34-5.43-2.08-8.3-.73-2.88-1.42-5.7-2.08-8.47-1.57-6.51-3.26-13.35-5.05-20.51l-14.41,38.74c.6.54,1.38.98,2.36,1.3.98.33,2.25.49,3.83.49h4.72v.41h-4.8c-2.93.11-5.02.77-6.27,1.99-1.25,1.22-1.87,3.3-1.87,6.23v3.5h-.41v-3.58c-.11-2.88-.77-4.95-1.99-6.23-1.22-1.27-3.3-1.91-6.23-1.91h-4.72v-.41h4.8c1.25,0,2.29-.11,3.13-.33.84-.22,1.56-.52,2.16-.9L25.98,23.77c-1.9,7.81-3.87,15.86-5.9,24.13-2.04,8.28-4,16.32-5.9,24.13-.65,3.15.65,4.72,3.91,4.72h2.44c.16,0,.24.06.24.16v.16c0,.11-.08.16-.24.16H4.24c-.16,0-.24-.05-.24-.16v-.16c0-.11.08-.16.24-.16h2.44c1.63,0,2.84-.38,3.62-1.14.79-.76,1.4-1.98,1.83-3.66,1.9-7.92,3.85-15.93,5.86-24.01,2.01-8.09,3.96-16.09,5.86-24.01.33-1.36.33-2.47,0-3.34-.33-.87-1.11-1.33-2.36-1.38h-1.38c-1.19,0-2.01.5-2.44,1.51-.44,1.01-.65,1.99-.65,2.97v2.85h-.24v-2.85c0-1.74-.38-3-1.14-3.78-.76-.79-2.01-1.18-3.74-1.18h-2.93v-.24h2.93c1.74,0,2.98-.38,3.74-1.14s1.14-2.01,1.14-3.74v-2.85h.24v2.85c0,.49.03.99.08,1.51.05.52.19,1,.41,1.47.22.46.53.84.94,1.14.41.3.96.45,1.67.45h9.93c2.49,5.59,4.83,10.85,7,15.79.92,2.12,1.87,4.27,2.85,6.47.98,2.2,1.91,4.3,2.81,6.31.9,2.01,1.71,3.85,2.44,5.54.73,1.68,1.34,3.07,1.83,4.15l14.41-38.26h9.69c.81,0,1.48-.14,1.99-.41.51-.27.91-.61,1.18-1.02.27-.41.46-.88.57-1.42.11-.54.16-1.06.16-1.55v-2.93h.24v2.93c0,1.74.38,2.99,1.14,3.74.76.76,2.01,1.14,3.74,1.14h2.44v.24h-2.44c-1.74,0-2.99.39-3.74,1.18-.76.79-1.14,2.05-1.14,3.79v2.77h-.24v-2.85Z"/>
  <path class="cls-1" d="m94.69,45.44c-1.89,0-3.19-1.3-3.19-3.19v-12.77c0-1.89,1.3-3.19,3.19-3.19h3.19v19.16h-3.19Zm0,19.04c-1.89,0-3.19-1.3-3.19-3.19v-6.27c0-1.89,1.3-3.19,3.19-3.19h3.19v12.65h-3.19Zm9.46-41.39c0,1.89-1.3,3.19-3.19,3.19h-3.07v-3.19c0-1.89,1.3-3.19,3.19-3.19h3.07v3.19Zm-6.27,22.35h38.2v3.19c0,1.89-1.3,3.19-3.19,3.19h-35v-6.39Zm3.19,25.42c-1.89,0-3.19-1.3-3.19-3.19v-3.19h3.07c1.89,0,3.19,1.3,3.19,3.19v3.19h-3.07Zm3.07-54.04c0-1.89,1.3-3.19,3.19-3.19h19.16c1.89,0,3.19,1.3,3.19,3.19v3.07h-25.54v-3.07Zm25.54,54.04v3.19c0,1.89-1.3,3.19-3.19,3.19h-19.16c-1.89,0-3.19-1.3-3.19-3.19v-3.19h25.54Zm3.19-44.58c-1.89,0-3.19-1.3-3.19-3.19v-3.19h3.19c1.89,0,3.19,1.3,3.19,3.19v3.19h-3.19Zm-3.19,41.39c0-1.89,1.3-3.19,3.19-3.19h3.19v3.19c0,1.89-1.3,3.19-3.19,3.19h-3.19v-3.19Zm6.39-41.39h3.19c1.89,0,3.19,1.3,3.19,3.19v12.77c0,1.89-1.3,3.19-3.19,3.19h-3.19v-19.16Zm0,31.81h6.39v3.19c0,1.89-1.3,3.19-3.19,3.19h-3.19v-6.39Z"/>
  <path class="cls-1" d="m155.23,16.83c0,1.89-1.18,3.07-3.07,3.07-2.01,0-3.31-1.18-3.31-3.07s1.18-3.19,3.07-3.19c2.01,0,3.31,1.18,3.31,3.07v.12Zm-3.19,9.46c-2.01,0-3.19-1.3-3.19-3.19,0-2.01,1.3-3.19,3.19-3.19,2.01,0,3.19,1.3,3.19,3.19s-1.3,3.19-3.19,3.19Zm0,0c2.01,0,3.19,1.3,3.19,3.19s-1.3,3.19-3.19,3.19c-2.01,0-3.19-1.3-3.19-3.19,0-2.01,1.3-3.19,3.19-3.19Zm0,6.39c2.01,0,3.19,1.3,3.19,3.19s-1.3,3.19-3.19,3.19c-2.01,0-3.19-1.3-3.19-3.19,0-2.01,1.3-3.19,3.19-3.19Zm0,6.39c2.01,0,3.19,1.3,3.19,3.19s-1.3,3.19-3.19,3.19c-2.01,0-3.19-1.3-3.19-3.19,0-2.01,1.3-3.19,3.19-3.19Zm0,12.77c-2.01,0-3.19-1.3-3.19-3.19,0-2.01,1.3-3.19,3.19-3.19,2.01,0,3.19,1.3,3.19,3.19s-1.3,3.19-3.19,3.19Zm3.19,3.19c0,1.89-1.18,3.07-3.07,3.07-2.01,0-3.31-1.18-3.31-3.07s1.18-3.19,3.07-3.19c2.01,0,3.31,1.18,3.31,3.07v.12Zm-3.19,9.46c-2.01,0-3.19-1.3-3.19-3.19,0-2.01,1.3-3.19,3.19-3.19,2.01,0,3.19,1.3,3.19,3.19s-1.3,3.19-3.19,3.19Zm0,6.39c-2.01,0-3.19-1.3-3.19-3.19,0-2.01,1.3-3.19,3.19-3.19,2.01,0,3.19,1.3,3.19,3.19s-1.3,3.19-3.19,3.19Zm0,0c2.01,0,3.19,1.3,3.19,3.19,0,2.01-1.3,3.19-3.19,3.19-2.01,0-3.19-1.3-3.19-3.19s1.3-3.19,3.19-3.19Zm9.58-54.04c0,1.89-1.18,3.07-3.07,3.07-2.01,0-3.31-1.18-3.31-3.07s1.18-3.19,3.07-3.19c2.01,0,3.31,1.18,3.31,3.07v.12Zm-3.19,9.46c-2.01,0-3.19-1.3-3.19-3.19,0-2.01,1.3-3.19,3.19-3.19,2.01,0,3.19,1.3,3.19,3.19s-1.3,3.19-3.19,3.19Zm0,0c2.01,0,3.19,1.3,3.19,3.19s-1.3,3.19-3.19,3.19c-2.01,0-3.19-1.3-3.19-3.19,0-2.01,1.3-3.19,3.19-3.19Zm0,6.39c2.01,0,3.19,1.3,3.19,3.19s-1.3,3.19-3.19,3.19c-2.01,0-3.19-1.3-3.19-3.19,0-2.01,1.3-3.19,3.19-3.19Zm0,6.39c2.01,0,3.19,1.3,3.19,3.19s-1.3,3.19-3.19,3.19c-2.01,0-3.19-1.3-3.19-3.19,0-2.01,1.3-3.19,3.19-3.19Zm0,12.77c-2.01,0-3.19-1.3-3.19-3.19,0-2.01,1.3-3.19,3.19-3.19,2.01,0,3.19,1.3,3.19,3.19s-1.3,3.19-3.19,3.19Zm3.19,3.19c0,1.89-1.18,3.07-3.07,3.07-2.01,0-3.31-1.18-3.31-3.07s1.18-3.19,3.07-3.19c2.01,0,3.31,1.18,3.31,3.07v.12Zm-3.19,9.46c-2.01,0-3.19-1.3-3.19-3.19,0-2.01,1.3-3.19,3.19-3.19,2.01,0,3.19,1.3,3.19,3.19s-1.3,3.19-3.19,3.19Zm0,6.39c-2.01,0-3.19-1.3-3.19-3.19,0-2.01,1.3-3.19,3.19-3.19,2.01,0,3.19,1.3,3.19,3.19s-1.3,3.19-3.19,3.19Zm0,0c2.01,0,3.19,1.3,3.19,3.19,0,2.01-1.3,3.19-3.19,3.19-2.01,0-3.19-1.3-3.19-3.19s1.3-3.19,3.19-3.19Zm6.39-50.97c2.01,0,3.19,1.3,3.19,3.19s-1.3,3.19-3.19,3.19c-2.01,0-3.19-1.3-3.19-3.19,0-2.01,1.3-3.19,3.19-3.19Zm0,6.39c2.01,0,3.19,1.3,3.19,3.19s-1.3,3.19-3.19,3.19c-2.01,0-3.19-1.3-3.19-3.19,0-2.01,1.3-3.19,3.19-3.19Zm9.58-9.46c0,1.89-1.18,3.07-3.07,3.07-2.01,0-3.31-1.18-3.31-3.07s1.18-3.19,3.07-3.19c2.01,0,3.31,1.18,3.31,3.07v.12Zm-3.19,3.07c2.01,0,3.19,1.3,3.19,3.19s-1.3,3.19-3.19,3.19c-2.01,0-3.19-1.3-3.19-3.19,0-2.01,1.3-3.19,3.19-3.19Zm9.46-3.07c0,1.89-1.18,3.07-3.07,3.07-2.01,0-3.19-1.18-3.19-3.07s1.18-3.19,3.07-3.19,3.19,1.18,3.19,3.07v.12Zm0,6.39c0,1.89-1.18,3.07-3.07,3.07s-3.19-1.18-3.19-3.07c0-2.01,1.18-3.31,3.07-3.31s3.19,1.18,3.19,3.07v.24Zm6.39-6.39c0,1.89-1.18,3.07-3.07,3.07-2.01,0-3.31-1.18-3.31-3.07s1.18-3.19,3.07-3.19c2.01,0,3.31,1.18,3.31,3.07v.12Zm-3.19,9.46c-2.01,0-3.19-1.3-3.19-3.19,0-2.01,1.3-3.19,3.19-3.19,2.01,0,3.19,1.3,3.19,3.19s-1.3,3.19-3.19,3.19Zm0,6.39c-2.01,0-3.19-1.3-3.19-3.19s1.3-3.19,3.19-3.19c2.01,0,3.19,1.3,3.19,3.19,0,2.01-1.3,3.19-3.19,3.19Zm6.39-6.39c-2.01,0-3.19-1.3-3.19-3.19,0-2.01,1.3-3.19,3.19-3.19,2.01,0,3.19,1.3,3.19,3.19s-1.3,3.19-3.19,3.19Zm0,0c2.01,0,3.19,1.3,3.19,3.19,0,2.01-1.3,3.19-3.19,3.19-2.01,0-3.19-1.3-3.19-3.19s1.3-3.19,3.19-3.19Zm0,6.39c2.01,0,3.19,1.3,3.19,3.19,0,2.01-1.3,3.19-3.19,3.19-2.01,0-3.19-1.3-3.19-3.19s1.3-3.19,3.19-3.19Zm0,6.39c2.01,0,3.19,1.3,3.19,3.19,0,2.01-1.3,3.19-3.19,3.19-2.01,0-3.19-1.3-3.19-3.19s1.3-3.19,3.19-3.19Zm0,6.39c2.01,0,3.19,1.3,3.19,3.19,0,2.01-1.3,3.19-3.19,3.19-2.01,0-3.19-1.3-3.19-3.19s1.3-3.19,3.19-3.19Zm-3.19,9.46c0-1.89,1.18-3.07,3.07-3.07,2.01,0,3.31,1.18,3.31,3.07s-1.18,3.19-3.07,3.19c-2.01,0-3.31-1.18-3.31-3.07v-.12Zm3.19,3.19c2.01,0,3.19,1.3,3.19,3.19,0,2.01-1.3,3.19-3.19,3.19-2.01,0-3.19-1.3-3.19-3.19s1.3-3.19,3.19-3.19Zm0,6.39c2.01,0,3.19,1.3,3.19,3.19,0,2.01-1.3,3.19-3.19,3.19-2.01,0-3.19-1.3-3.19-3.19s1.3-3.19,3.19-3.19Zm0,12.77c-2.01,0-3.19-1.3-3.19-3.19s1.3-3.19,3.19-3.19c2.01,0,3.19,1.3,3.19,3.19,0,2.01-1.3,3.19-3.19,3.19Zm6.39-50.97c2.01,0,3.19,1.3,3.19,3.19,0,2.01-1.3,3.19-3.19,3.19-2.01,0-3.19-1.3-3.19-3.19s1.3-3.19,3.19-3.19Zm0,6.39c2.01,0,3.19,1.3,3.19,3.19,0,2.01-1.3,3.19-3.19,3.19-2.01,0-3.19-1.3-3.19-3.19s1.3-3.19,3.19-3.19Zm0,6.39c2.01,0,3.19,1.3,3.19,3.19,0,2.01-1.3,3.19-3.19,3.19-2.01,0-3.19-1.3-3.19-3.19s1.3-3.19,3.19-3.19Zm0,6.39c2.01,0,3.19,1.3,3.19,3.19,0,2.01-1.3,3.19-3.19,3.19-2.01,0-3.19-1.3-3.19-3.19s1.3-3.19,3.19-3.19Zm-3.19,9.46c0-1.89,1.18-3.07,3.07-3.07,2.01,0,3.31,1.18,3.31,3.07s-1.18,3.19-3.07,3.19c-2.01,0-3.31-1.18-3.31-3.07v-.12Zm3.19,3.19c2.01,0,3.19,1.3,3.19,3.19,0,2.01-1.3,3.19-3.19,3.19-2.01,0-3.19-1.3-3.19-3.19s1.3-3.19,3.19-3.19Zm0,6.39c2.01,0,3.19,1.3,3.19,3.19,0,2.01-1.3,3.19-3.19,3.19-2.01,0-3.19-1.3-3.19-3.19s1.3-3.19,3.19-3.19Zm0,6.39c2.01,0,3.19,1.3,3.19,3.19,0,2.01-1.3,3.19-3.19,3.19-2.01,0-3.19-1.3-3.19-3.19s1.3-3.19,3.19-3.19Z"/>
  <path class="cls-1" d="m234.91,61.06c-.88,2.1-1.82,4.15-2.82,6.17-.99,2.02-2.03,3.81-3.1,5.38-1.08,1.57-2.19,2.84-3.35,3.81s-2.32,1.45-3.48,1.45c-1.71,0-3.02-.53-3.93-1.57-.91-1.05-1.48-2.26-1.7-3.64-.39-1.99-.28-4.11.33-6.38.61-2.26,1.52-4.51,2.73-6.75,1.21-2.24,2.68-4.39,4.39-6.46,1.71-2.07,3.49-3.95,5.34-5.63,1.85-1.68,3.7-3.09,5.55-4.22,1.85-1.13,3.55-1.86,5.09-2.19.66-1.55,1.27-3.01,1.82-4.39.55-1.16,1.09-2.3,1.61-3.44.52-1.13.92-1.95,1.2-2.44.38-.61.84-1.27,1.37-1.99.52-.72,1.03-1.38,1.53-1.99.61-.72,1.21-1.41,1.82-2.07-2.93-.94-5.88-1.79-8.86-2.57-2.54-.61-5.27-1.17-8.2-1.7-2.93-.52-5.63-.79-8.12-.79h-.99c-.33,0-.64.03-.91.08-1.33.11-1.9.58-1.74,1.41.11.44.46.77,1.04.99.58.22,1.2.41,1.86.58.66.17,1.27.39,1.82.66.55.28.88.72.99,1.33.17.88-.21,1.61-1.12,2.19-.91.58-1.92,1.13-3.02,1.66-1.1.53-2.13,1.08-3.06,1.66-.94.58-1.32,1.28-1.16,2.11.11.55.34.99.7,1.32.36.33.77.58,1.24.75.47.17.94.28,1.41.33.47.06.87.08,1.2.08,2.48,0,4.62-.47,6.42-1.41,1.79-.94,3.3-1.96,4.51-3.06,1.43-1.32,2.65-2.81,3.64-4.47-.77,2.26-1.96,4.31-3.56,6.13-1.38,1.55-3.26,2.95-5.63,4.22-2.37,1.27-5.44,1.9-9.19,1.9-2.04,0-3.74-.46-5.09-1.37-1.35-.91-2.03-2.06-2.03-3.44s.55-2.53,1.66-3.27c1.1-.75,2.32-1.37,3.64-1.86s2.53-.92,3.6-1.28c1.08-.36,1.56-.81,1.45-1.37-.11-.61-.51-.98-1.2-1.12-.69-.14-1.45-.26-2.28-.37-.83-.11-1.61-.34-2.36-.7-.75-.36-1.2-1.09-1.37-2.19-.22-1.16.25-2.07,1.41-2.73,1.16-.66,2.48-1.05,3.97-1.16.39-.06.77-.08,1.16-.08h1.16c3.31,0,6.65.29,10.02.87,3.37.58,6.46,1.2,9.27,1.86,3.2.83,6.32,1.77,9.36,2.82,1.49-1.16,3.23-2.21,5.22-3.15,1.66-.77,3.66-1.48,6-2.11,2.35-.63,4.98-.95,7.91-.95,1.88,0,3.63.12,5.26.37,1.63.25,3.03.62,4.22,1.12,1.19.5,2.14,1.09,2.86,1.78.72.69,1.08,1.5,1.08,2.44.05,1.66-.76,3.02-2.44,4.1-1.68,1.08-4.57,1.61-8.65,1.61-2.98,0-5.74-.14-8.28-.41-2.54-.28-4.77-.58-6.71-.91-2.21-.38-4.25-.83-6.13-1.32-.94.72-1.9,1.77-2.9,3.15-.88,1.1-1.85,2.64-2.9,4.6-1.05,1.96-2.13,4.46-3.23,7.49,1.66.06,3.2.3,4.64.75,1.16.39,2.28.99,3.35,1.82,1.08.83,1.75,2.02,2.03,3.56.22,1.16.21,2.24-.04,3.23-.25.99-.64,1.9-1.16,2.73-.53.83-1.16,1.59-1.9,2.28-.75.69-1.53,1.31-2.36,1.86-1.93,1.22-4.2,2.24-6.79,3.06,1.88-.99,3.53-2.04,4.97-3.15.61-.5,1.2-1.02,1.78-1.57.58-.55,1.08-1.14,1.49-1.78.41-.63.72-1.28.91-1.95.19-.66.23-1.32.12-1.99-.22-1.1-.57-2-1.03-2.69-.47-.69-1.02-1.23-1.66-1.61-.64-.38-1.28-.65-1.95-.79-.66-.14-1.27-.21-1.82-.21-.28,0-.54.01-.79.04-.25.03-.48.04-.7.04-.22.06-.41.11-.58.17-1.88,6.24-3.84,11.81-5.88,16.73Zm.12-14.66c-1.3.83-2.64,1.86-4.02,3.1-1.38,1.24-2.75,2.65-4.1,4.22-1.35,1.57-2.54,3.17-3.56,4.8-1.02,1.63-1.81,3.24-2.36,4.84-.55,1.6-.72,3.06-.5,4.39.17.94.62,1.67,1.37,2.19.75.52,1.5.79,2.28.79s1.57-.37,2.4-1.12c.83-.75,1.64-1.72,2.44-2.94.8-1.21,1.59-2.59,2.36-4.14.77-1.54,1.52-3.12,2.24-4.72,1.6-3.75,3.17-8.03,4.72-12.83-.88.11-1.97.58-3.27,1.41Zm39.79-26.58c-1.27-.66-3.15-.99-5.63-.99-2.21,0-4.25.23-6.13.7-1.88.47-3.51,1.01-4.89,1.61-1.6.66-3.06,1.44-4.39,2.32,2.59.77,5.27,1.31,8.03,1.61,2.76.3,5.49.46,8.2.46.83,0,1.67-.05,2.53-.17.85-.11,1.63-.29,2.32-.54.69-.25,1.24-.59,1.66-1.03s.57-.99.46-1.66c-.17-.88-.88-1.66-2.15-2.32Z"/>
  <path class="cls-1" d="m321.39,59.46l.22.22-13.73,18.67-11.32-1.76,17.91-49.1c-2.42-1.65-5.6-2.86-9.01-2.86-14.39,0-25.48,21.64-25.48,36.03,0,10.11,5.49,11.42,8.9,11.42,2.31,0,4.61-.66,6.92-1.76l-.33.77c-5.71,4.61-10.55,6.26-14.83,6.26-6.15,0-12.41-3.3-12.41-13.95,0-19.11,19.55-40.75,43.5-40.75,3.73,0,10.76.55,14.28,1.43l-16.15,44.16c-.11.33.11.55.44.33,3.52-2.31,7.14-5.38,11.1-9.12Z"/>
</svg>