<?xml version="1.0" encoding="UTF-8"?>
<svg id="Capa_1" data-name="Capa 1" xmlns="http://www.w3.org/2000/svg" viewBox="0 0 199 108">
  <defs>
    <style>
      .cls-1 {
        fill: #ff0;
        stroke-width: 0px;
      }
    </style>
  </defs>
  <path class="cls-1" d="m163.25,10c-8.67,0-16.41,6.52-21.5,16.73-5.09-10.21-12.83-16.73-21.5-16.73s-15.91,6.11-21,15.76c-5.09-9.65-12.61-15.76-21-15.76-7.73,0-14.72,5.18-19.75,13.54-5.03-8.36-12.02-13.54-19.75-13.54-15.33,0-27.75,20.37-27.75,45.5s12.42,45.5,27.75,45.5c7.73,0,14.72-5.18,19.75-13.54,5.03,8.36,12.02,13.54,19.75,13.54,8.39,0,15.91-6.11,21-15.76,5.09,9.65,12.61,15.76,21,15.76s16.41-6.52,21.5-16.73c5.09,10.21,12.83,16.73,21.5,16.73,15.33,0,27.75-20.37,27.75-45.5s-12.42-45.5-27.75-45.5Z"/>
</svg>