<?xml version="1.0" encoding="UTF-8"?>
<svg id="Capa_1" data-name="Capa 1" xmlns="http://www.w3.org/2000/svg" viewBox="0 0 332 88">
  <defs>
    <style>
      .cls-1 {
        fill: #fff;
        stroke-width: 0px;
      }
    </style>
  </defs>
  <path class="cls-1" d="m19.47,30.34h-2.93c-1.74,0-2.93-1.19-2.93-2.93v-8.69h5.86v11.62Zm-5.86,8.8c0-1.74,1.19-2.93,2.93-2.93h2.93v40.95h-5.86v-38.01Zm11.73-8.8v2.93c0,1.74-1.19,2.93-2.93,2.93h-2.93v-5.87h5.87Zm0-2.93c0-1.74,1.19-2.93,2.93-2.93h2.93v2.93c0,1.74-1.19,2.93-2.93,2.93h-2.93v-2.93Zm5.87-5.76c0-1.74,1.19-2.93,2.93-2.93h5.76c1.74,0,2.93,1.19,2.93,2.93v2.82h-11.62v-2.82Zm14.55,8.69c-1.74,0-2.93-1.19-2.93-2.93v-2.93h2.93c1.74,0,2.93,1.19,2.93,2.93v2.93h-2.93Zm5.87,0c1.74,0,2.93,1.19,2.93,2.93,0-1.74,1.19-2.93,2.93-2.93h2.93v2.93c0,1.74-1.19,2.93-2.93,2.93h-2.93v40.95h-5.87V30.34h2.93Zm8.8-2.93c0-1.74,1.19-2.93,2.93-2.93h2.93v2.93c0,1.74-1.19,2.93-2.93,2.93h-2.93v-2.93Zm5.87-5.76c0-1.74,1.19-2.93,2.93-2.93h5.76c1.74,0,2.93,1.19,2.93,2.93v2.82h-11.62v-2.82Zm14.55,8.69c-1.74,0-2.93-1.19-2.93-2.93v-2.93h2.93c1.74,0,2.93,1.19,2.93,2.93v2.93h-2.93Zm5.86,0c1.74,0,2.93,1.19,2.93,2.93v43.88h-5.87V30.34h2.93Z"/>
  <path class="cls-1" d="m149.55,49.7c.66-.33,1.27-.69,1.84-1.08.57-.39,1.18-.75,1.84-1.08.66-.33,1.46-.49,2.42-.49,1.55,0,2.73.46,3.54,1.39.81.93,1.21,2.05,1.21,3.36,0,.66-.18,1.4-.54,2.24-.36.84-.88,1.61-1.57,2.33-.69.72-1.54,1.31-2.55,1.79-1.02.48-2.15.72-3.41.72-1.85,0-3.45-.4-4.79-1.21-1.34-.81-2.6-1.84-3.76-3.09-1.16-1.25-2.32-2.6-3.45-4.03-1.14-1.43-2.41-2.79-3.81-4.08-1.4-1.28-3-2.36-4.79-3.23-1.79-.86-3.94-1.36-6.45-1.48-.9,0-1.84.08-2.82.22-.99.15-1.9.43-2.73.85-.84.42-1.52.99-2.06,1.7-.54.72-.81,1.61-.81,2.69,0,1.25.36,2.3,1.08,3.14.72.84,1.48,1.64,2.28,2.42.81.78,1.52,1.55,2.15,2.33.63.78.85,1.73.67,2.87-.18,1.14-.61,1.99-1.3,2.55-.69.57-1.51,1-2.46,1.3-.96.3-1.97.51-3.05.63-1.08.12-2.06.28-2.96.49-.9.21-1.64.52-2.24.94-.6.42-.9,1.08-.9,1.97,0,.78.25,1.43.76,1.97.51.54,1.24.81,2.2.81.84,0,1.6-.12,2.28-.36.69-.24,1.36-.52,2.02-.85.66-.33,1.33-.61,2.02-.85.69-.24,1.45-.36,2.28-.36,1.19,0,2.18.34,2.96,1.03.78.69,1.16,1.57,1.16,2.64,0,.72-.19,1.36-.58,1.93-.39.57-.84,1.12-1.34,1.66-.51.54-.96,1.06-1.34,1.57-.39.51-.58,1.09-.58,1.75,0,1.08.61,1.99,1.84,2.73,1.22.75,2.85,1.12,4.88,1.12s3.7-.45,5.02-1.34c1.31-.9,2.43-2,3.36-3.32.93-1.31,1.72-2.76,2.37-4.35.66-1.58,1.36-3.03,2.11-4.35.75-1.31,1.61-2.42,2.6-3.32s2.22-1.34,3.72-1.34h.45c1.55.12,2.81.7,3.76,1.75.95,1.05,1.43,2.32,1.43,3.81,0,1.97-.82,3.79-2.46,5.47-1.64,1.67-3.79,3.12-6.45,4.35-2.66,1.22-5.63,2.16-8.92,2.82-3.29.66-6.57.99-9.86.99-2.87,0-5.71-.4-8.51-1.21-2.81-.81-5.35-1.9-7.62-3.27-2.27-1.37-4.11-2.99-5.51-4.84-1.4-1.85-2.11-3.79-2.11-5.82,0-2.27.84-3.97,2.51-5.11,1.67-1.13,3.67-1.7,6-1.7,1.43,0,2.84.12,4.21.36,1.37.24,2.6.36,3.67.36.95,0,1.75-.18,2.37-.54s1-1.04,1.12-2.06c.12-.9-.12-1.63-.72-2.2-.6-.57-1.39-1.09-2.37-1.57-.99-.48-2.06-.93-3.23-1.34-1.17-.42-2.27-.91-3.32-1.48-1.05-.57-1.91-1.24-2.6-2.02-.69-.78-1.03-1.73-1.03-2.87,0-2.21,1.34-3.75,4.03-4.61,2.69-.87,6.18-1.3,10.48-1.3,3.4,0,6.33.49,8.78,1.48,2.45.99,4.58,2.09,6.41,3.32,1.82,1.23,3.43,2.33,4.84,3.32,1.4.99,2.73,1.48,3.99,1.48.9,0,1.67-.16,2.33-.49Zm-.49-15.86c1.46,1.05,2.2,2.64,2.2,4.79s-.63,3.73-1.88,4.93c-1.25,1.2-2.63,1.79-4.12,1.79-1.73,0-3.05-.45-3.94-1.34-.9-.9-1.4-2.15-1.52-3.76-.06-.6-.04-1.21.04-1.84.09-.63.13-1.18.13-1.66s-.11-.88-.31-1.21c-.21-.33-.67-.49-1.39-.49-.54,0-1.37.19-2.51.58-1.14.39-2.41.82-3.81,1.3-1.4.48-2.85.91-4.35,1.3-1.49.39-2.9.58-4.21.58-3.41,0-6.12-1-8.15-3-2.03-2-3.05-4.53-3.05-7.57,0-2.09.37-4.03,1.12-5.82.75-1.79,1.78-3.36,3.09-4.7,1.31-1.34,2.88-2.4,4.7-3.18,1.82-.78,3.84-1.17,6.05-1.17,1.55,0,2.82.24,3.81.72.99.48,1.88,1.02,2.69,1.61.81.6,1.55,1.14,2.24,1.61.69.48,1.48.72,2.37.72s1.57-.57,2.02-1.7c.45-1.13.95-2.4,1.52-3.81.57-1.4,1.31-2.67,2.24-3.81.93-1.13,2.25-1.7,3.99-1.7,1.91,0,3.23.46,3.94,1.39.72.93,1.24,1.94,1.57,3.05.33,1.11.67,2.12,1.03,3.05.36.93,1.17,1.39,2.42,1.39.48,0,.93-.15,1.34-.45.42-.3.88-.64,1.39-1.03.51-.39,1.08-.73,1.7-1.03.63-.3,1.39-.45,2.28-.45,1.55,0,2.66.51,3.32,1.52.66,1.02.99,2.12.99,3.32,0,.96-.28,1.88-.85,2.78-.57.9-1.3,1.67-2.2,2.33-.9.66-1.9,1.18-3,1.57-1.11.39-2.2.58-3.27.58-1.91,0-3.35-.43-4.3-1.3-.96-.87-1.61-1.93-1.97-3.18-.36-1.25-.55-2.64-.58-4.17-.03-1.52-.09-2.91-.18-4.17-.09-1.25-.36-2.31-.81-3.18-.45-.87-1.27-1.3-2.46-1.3s-1.97.4-2.51,1.21c-.54.81-.93,1.81-1.17,3-.24,1.2-.39,2.51-.45,3.94-.06,1.43-.17,2.79-.31,4.08-.15,1.29-.45,2.41-.9,3.36-.45.96-1.18,1.55-2.2,1.79-.24.06-.6.09-1.08.09-1.31,0-2.34-.57-3.09-1.7-.75-1.13-1.51-2.4-2.28-3.81-.78-1.4-1.69-2.67-2.73-3.81-1.05-1.13-2.52-1.7-4.44-1.7-2.03,0-3.84.39-5.42,1.17-1.58.78-2.37,1.85-2.37,3.23,0,.9.24,1.55.72,1.97.48.42,1.08.69,1.79.81.72.12,1.49.18,2.33.18s1.61.04,2.33.13c.72.09,1.31.3,1.79.63.48.33.72.88.72,1.66,0,1.14-.37,2.11-1.12,2.91-.75.81-1.57,1.54-2.46,2.2-.9.66-1.72,1.31-2.46,1.97-.75.66-1.12,1.4-1.12,2.24,0,1.2.45,2.05,1.34,2.55.9.51,2.09.76,3.58.76s2.85-.21,4.26-.63c1.4-.42,2.81-.88,4.21-1.39,1.4-.51,2.81-1,4.21-1.48,1.4-.48,2.85-.75,4.35-.81,1.97,0,3.69.52,5.15,1.57Z"/>
  <path class="cls-1" d="m208.61,68.9c-.22.54,0,.65.43.33,3.37-2.5,7.17-5.32,10.97-9.01l.33.22-13.69,18.46-11.19-1.74,16.94-45.83c1.09-2.93,1.85-3.58,1.09-3.58-1.52,0-7.39,4.13-32.91,32.04l-6.84,18.9-9.78-1.52,16.51-45.18c.87-2.39-1.3-4.78-9.56-7.28v-.22l23.24-.54-3.48,8.04-8.47,23.24,31.39-32.48c5.43-.22,11.4.98,10.64,3.04l-15.64,43.12Z"/>
  <path class="cls-1" d="m231.31,30.34c-1.85,0-2.93-1.19-2.93-2.93,0-1.85,1.19-2.93,2.93-2.93,1.85,0,2.93,1.19,2.93,2.93s-1.19,2.93-2.93,2.93Zm0,5.87c-1.85,0-2.93-1.19-2.93-2.93,0-1.85,1.19-2.93,2.93-2.93,1.85,0,2.93,1.19,2.93,2.93s-1.19,2.93-2.93,2.93Zm8.8-14.55c0,1.74-1.09,2.82-2.82,2.82-1.85,0-3.04-1.09-3.04-2.82s1.09-2.93,2.82-2.93c1.85,0,3.04,1.09,3.04,2.82v.11Zm-2.93,8.69c-1.85,0-2.93-1.19-2.93-2.93,0-1.85,1.19-2.93,2.93-2.93,1.85,0,2.93,1.19,2.93,2.93s-1.19,2.93-2.93,2.93Zm0,5.87c-1.85,0-2.93-1.19-2.93-2.93,0-1.85,1.19-2.93,2.93-2.93,1.85,0,2.93,1.19,2.93,2.93s-1.19,2.93-2.93,2.93Zm5.87-23.35c-1.85,0-2.93-1.19-2.93-2.93,0-1.85,1.19-2.93,2.93-2.93,1.85,0,2.93,1.19,2.93,2.93s-1.19,2.93-2.93,2.93Zm0,5.87c-1.85,0-2.93-1.19-2.93-2.93,0-1.85,1.19-2.93,2.93-2.93,1.85,0,2.93,1.19,2.93,2.93s-1.19,2.93-2.93,2.93Zm2.93,2.93c0,1.74-1.09,2.82-2.82,2.82-1.85,0-3.04-1.09-3.04-2.82s1.09-2.93,2.82-2.93c1.85,0,3.04,1.09,3.04,2.82v.11Zm-2.93,8.69c-1.85,0-2.93-1.19-2.93-2.93,0-1.85,1.19-2.93,2.93-2.93,1.85,0,2.93,1.19,2.93,2.93s-1.19,2.93-2.93,2.93Zm0,0c1.85,0,2.93,1.19,2.93,2.93s-1.19,2.93-2.93,2.93c-1.85,0-2.93-1.19-2.93-2.93,0-1.85,1.19-2.93,2.93-2.93Zm0,11.73c-1.85,0-2.93-1.19-2.93-2.93,0-1.85,1.19-2.93,2.93-2.93,1.85,0,2.93,1.19,2.93,2.93s-1.19,2.93-2.93,2.93Zm0,5.86c-1.85,0-2.93-1.19-2.93-2.93,0-1.85,1.19-2.93,2.93-2.93,1.85,0,2.93,1.19,2.93,2.93s-1.19,2.93-2.93,2.93Zm0,5.87c-1.85,0-2.93-1.19-2.93-2.93,0-1.85,1.19-2.93,2.93-2.93,1.85,0,2.93,1.19,2.93,2.93s-1.19,2.93-2.93,2.93Zm2.93,2.93c0,1.74-1.09,2.82-2.82,2.82-1.85,0-3.04-1.09-3.04-2.82s1.09-2.93,2.82-2.93c1.85,0,3.04,1.09,3.04,2.82v.11Zm-2.93,8.69c-1.85,0-2.93-1.19-2.93-2.93,0-1.85,1.19-2.93,2.93-2.93,1.85,0,2.93,1.19,2.93,2.93s-1.19,2.93-2.93,2.93Zm0,5.86c-1.85,0-2.93-1.19-2.93-2.93,0-1.85,1.19-2.93,2.93-2.93,1.85,0,2.93,1.19,2.93,2.93s-1.19,2.93-2.93,2.93Zm5.86-58.43c-1.85,0-2.93-1.19-2.93-2.93,0-1.85,1.19-2.93,2.93-2.93,1.85,0,2.93,1.19,2.93,2.93s-1.19,2.93-2.93,2.93Zm0,5.87c-1.85,0-2.93-1.19-2.93-2.93,0-1.85,1.19-2.93,2.93-2.93,1.85,0,2.93,1.19,2.93,2.93s-1.19,2.93-2.93,2.93Zm0,5.76c1.85,0,2.93,1.19,2.93,2.93s-1.19,2.93-2.93,2.93c-1.85,0-2.93-1.19-2.93-2.93,0-1.85,1.19-2.93,2.93-2.93Zm0,5.86c1.85,0,2.93,1.19,2.93,2.93s-1.19,2.93-2.93,2.93c-1.85,0-2.93-1.19-2.93-2.93,0-1.85,1.19-2.93,2.93-2.93Zm0,11.73c-1.85,0-2.93-1.19-2.93-2.93,0-1.85,1.19-2.93,2.93-2.93,1.85,0,2.93,1.19,2.93,2.93s-1.19,2.93-2.93,2.93Zm0,5.86c-1.85,0-2.93-1.19-2.93-2.93,0-1.85,1.19-2.93,2.93-2.93,1.85,0,2.93,1.19,2.93,2.93s-1.19,2.93-2.93,2.93Zm0,5.87c-1.85,0-2.93-1.19-2.93-2.93,0-1.85,1.19-2.93,2.93-2.93,1.85,0,2.93,1.19,2.93,2.93s-1.19,2.93-2.93,2.93Zm2.93,2.93c0,1.74-1.09,2.82-2.82,2.82-1.85,0-3.04-1.09-3.04-2.82s1.09-2.93,2.82-2.93c1.85,0,3.04,1.09,3.04,2.82v.11Zm-2.93,8.69c-1.85,0-2.93-1.19-2.93-2.93,0-1.85,1.19-2.93,2.93-2.93,1.85,0,2.93,1.19,2.93,2.93s-1.19,2.93-2.93,2.93Zm0,5.86c-1.85,0-2.93-1.19-2.93-2.93,0-1.85,1.19-2.93,2.93-2.93,1.85,0,2.93,1.19,2.93,2.93s-1.19,2.93-2.93,2.93Zm0,0c1.85,0,2.93,1.19,2.93,2.93,0,1.85-1.19,2.93-2.93,2.93-1.85,0-2.93-1.19-2.93-2.93s1.19-2.93,2.93-2.93Zm5.87-46.81c1.85,0,2.93,1.19,2.93,2.93s-1.19,2.93-2.93,2.93c-1.85,0-2.93-1.19-2.93-2.93,0-1.85,1.19-2.93,2.93-2.93Zm0,5.86c1.85,0,2.93,1.19,2.93,2.93s-1.19,2.93-2.93,2.93c-1.85,0-2.93-1.19-2.93-2.93,0-1.85,1.19-2.93,2.93-2.93Zm0,35.08c1.85,0,2.93,1.19,2.93,2.93,0,1.85-1.19,2.93-2.93,2.93-1.85,0-2.93-1.19-2.93-2.93s1.19-2.93,2.93-2.93Zm0,5.86c1.85,0,2.93,1.19,2.93,2.93,0,1.85-1.19,2.93-2.93,2.93-1.85,0-2.93-1.19-2.93-2.93s1.19-2.93,2.93-2.93Zm5.87-46.81c1.85,0,2.93,1.19,2.93,2.93s-1.19,2.93-2.93,2.93c-1.85,0-2.93-1.19-2.93-2.93,0-1.85,1.19-2.93,2.93-2.93Zm0,5.86c1.85,0,2.93,1.19,2.93,2.93s-1.19,2.93-2.93,2.93c-1.85,0-2.93-1.19-2.93-2.93,0-1.85,1.19-2.93,2.93-2.93Zm0,29.22c1.85,0,2.93,1.19,2.93,2.93,0,1.85-1.19,2.93-2.93,2.93-1.85,0-2.93-1.19-2.93-2.93s1.19-2.93,2.93-2.93Zm0,5.87c1.85,0,2.93,1.19,2.93,2.93,0,1.85-1.19,2.93-2.93,2.93-1.85,0-2.93-1.19-2.93-2.93s1.19-2.93,2.93-2.93Zm0,5.86c1.85,0,2.93,1.19,2.93,2.93,0,1.85-1.19,2.93-2.93,2.93-1.85,0-2.93-1.19-2.93-2.93s1.19-2.93,2.93-2.93Zm5.86-46.81c1.85,0,2.93,1.19,2.93,2.93,0,1.85-1.19,2.93-2.93,2.93-1.85,0-2.93-1.19-2.93-2.93s1.19-2.93,2.93-2.93Zm0,5.86c1.85,0,2.93,1.19,2.93,2.93,0,1.85-1.19,2.93-2.93,2.93-1.85,0-2.93-1.19-2.93-2.93s1.19-2.93,2.93-2.93Zm0,29.22c1.85,0,2.93,1.19,2.93,2.93,0,1.85-1.19,2.93-2.93,2.93-1.85,0-2.93-1.19-2.93-2.93s1.19-2.93,2.93-2.93Zm0,5.87c1.85,0,2.93,1.19,2.93,2.93,0,1.85-1.19,2.93-2.93,2.93-1.85,0-2.93-1.19-2.93-2.93s1.19-2.93,2.93-2.93Z"/>
  <path class="cls-1" d="m275.3,27.41c0-1.74,1.19-2.93,2.93-2.93h2.93v5.86h-5.86v-2.93Zm2.93,43.88c-1.74,0-2.93-1.19-2.93-2.93v-11.62c0-1.74,1.19-2.93,2.93-2.93h2.93v17.49h-2.93Zm2.93-49.64c0-1.74,1.19-2.93,2.93-2.93h23.35c1.74,0,2.93,1.19,2.93,2.93v2.82h-29.22v-2.82Zm5.76,29.22c0,1.74-1.19,2.93-2.93,2.93h-2.82v-2.93c0-1.74,1.19-2.93,2.93-2.93h2.82v2.93Zm11.73,20.42v2.93c0,1.74-1.19,2.93-2.93,2.93h-11.62c-1.74,0-2.93-1.19-2.93-2.93v-2.93h17.49Zm-11.73-26.28c0-1.74,1.19-2.93,2.93-2.93h8.8v2.93c0,1.74-1.19,2.93-2.93,2.93h-8.8v-2.93Zm11.73-5.86c0-1.74,1.19-2.93,2.93-2.93h8.8v5.87h-11.73v-2.93Zm0,29.22c0-1.74,1.19-2.93,2.93-2.93h2.93v2.93c0,1.74-1.19,2.93-2.93,2.93h-2.93v-2.93Zm5.87-5.87c0-1.74,1.19-2.93,2.93-2.93h2.93v5.87h-5.86v-2.93Zm5.86-38.01h2.93c1.74,0,2.93,1.19,2.93,2.93v5.86c0,1.74-1.19,2.93-2.93,2.93h-2.93v-11.73Zm2.93,17.6c1.74,0,2.93,1.19,2.93,2.93v11.62c0,1.74-1.19,2.93-2.93,2.93h-2.93v-17.49h2.93Zm0,29.22c-1.74,0-2.93-1.19-2.93-2.93v-2.93h2.93c1.74,0,2.93,1.19,2.93,2.93v2.93h-2.93Zm5.87,5.87c-1.74,0-2.93-1.19-2.93-2.93v-2.93h5.76v5.87h-2.82Z"/>
</svg>